Coordinates
version=1
nRows=26
nColumns=24
inDegrees=yes

Units are S.I. units (second, meters, Newtons, ...)
Angles are in degrees.

endheader
time	pelvis_tilt	pelvis_list	pelvis_rotation	pelvis_tx	pelvis_ty	pelvis_tz	hip_flexion_r	hip_adduction_r	hip_rotation_r	knee_angle_r	ankle_angle_r	subtalar_angle_r	mtp_angle_r	hip_flexion_l	hip_adduction_l	hip_rotation_l	knee_angle_l	ankle_angle_l	subtalar_angle_l	mtp_angle_l	lumbar_extension	lumbar_bending	lumbar_rotation
      1.73000000	     91.52779280	     31.89435789	    -91.91499759	      1.02056893	      0.28748626	      1.07652302	     19.11065784	     -6.92581602	     -5.04460999	    -13.94364014	    -13.61181365	      0.00000000	      0.00000000	      8.92158155	     -7.12563096	     -5.30031727	    -70.07021657	    -10.90766777	      0.00000000	      0.00000000	      0.00000000	      0.00000000	      0.00000000
      1.74000000	     91.52650834	     31.89890780	    -91.91699894	      1.02056102	      0.28748540	      1.07652221	     19.11883562	     -6.91861959	     -5.04910207	    -13.94766672	    -13.59876500	      0.00000000	      0.00000000	      8.92620434	     -7.12985832	     -5.30616789	    -70.07513169	    -10.90988208	      0.00000000	      0.00000000	      0.00000000	      0.00000000	      0.00000000
      1.75000000	     91.52444380	     31.90360143	    -91.91962799	      1.02055637	      0.28748004	      1.07651536	     19.12510867	     -6.90993373	     -5.05262473	    -13.94890255	    -13.57008747	      0.00000000	      0.00000000	      8.93101200	     -7.13469208	     -5.31212572	    -70.08107171	    -10.91270026	      0.00000000	      0.00000000	      0.00000000	      0.00000000	      0.00000000
      1.76000000	     91.52214968	     31.90828184	    -91.92142707	      1.02055455	      0.28747467	      1.07650834	     19.12866860	     -6.90139158	     -5.05347647	    -13.94580414	    -13.53466482	      0.00000000	      0.00000000	      8.93639444	     -7.13977419	     -5.31555821	    -70.08789263	    -10.91617510	      0.00000000	      0.00000000	      0.00000000	      0.00000000	      0.00000000
      1.77000000	     91.52073146	     31.91265330	    -91.92083122	      1.02055258	      0.28747184	      1.07650869	     19.12932784	     -6.89482816	     -5.05221153	    -13.93759680	    -13.50494874	      0.00000000	      0.00000000	      8.94235738	     -7.14370751	     -5.31462262	    -70.09512125	    -10.92012827	      0.00000000	      0.00000000	      0.00000000	      0.00000000	      0.00000000
      1.78000000	     91.52128418	     31.91635480	    -91.91730317	      1.02054996	      0.28747177	      1.07651558	     19.12741506	     -6.89225966	     -5.05241306	    -13.92576652	    -13.49435486	      0.00000000	      0.00000000	      8.94786484	     -7.14442015	     -5.30900683	    -70.10178652	    -10.92397795	      0.00000000	      0.00000000	      0.00000000	      0.00000000	      0.00000000
      1.79000000	     91.52455840	     31.91816294	    -91.91215698	      1.02054634	      0.28748035	      1.07652645	     19.12425129	     -6.89547820	     -5.05968464	    -13.91445017	    -13.51404703	      0.00000000	      0.00000000	      8.95061357	     -7.14030818	     -5.30008845	    -70.10671555	    -10.92675184	      0.00000000	      0.00000000	      0.00000000	      0.00000000	      0.00000000
      1.80000000	     91.53073114	     31.91553484	    -91.90821343	      1.02053713	      0.28750289	      1.07653576	     19.12244229	     -6.90508265	     -5.07880531	    -13.90916259	    -13.56909882	      0.00000000	      0.00000000	      8.94732806	     -7.13131525	     -5.29082917	    -70.10921603	    -10.92736285	      0.00000000	      0.00000000	      0.00000000	      0.00000000	      0.00000000
      1.81000000	     91.53915919	     31.90571699	    -91.90837844	      1.02051541	      0.28753317	      1.07652807	     19.12473468	     -6.91917695	     -5.10983928	    -13.91421840	    -13.65438490	      0.00000000	      0.00000000	      8.93492312	     -7.11946683	     -5.28535905	    -70.10963592	    -10.92504930	      0.00000000	      0.00000000	      0.00000000	      0.00000000	      0.00000000
      1.82000000	     91.54794017	     31.88809225	    -91.91421202	      1.02047952	      0.28755610	      1.07649995	     19.13129512	     -6.93256940	     -5.14475167	    -13.92967670	    -13.75134016	      0.00000000	      0.00000000	      8.91283673	     -7.10889852	     -5.28784313	    -70.10928903	    -10.91974373	      0.00000000	      0.00000000	      0.00000000	      0.00000000	      0.00000000
      1.83000000	     91.55320559	     31.86668124	    -91.92547280	      1.02044671	      0.28755941	      1.07649394	     19.13682989	     -6.93764970	     -5.16644068	    -13.94886488	    -13.82752501	      0.00000000	      0.00000000	      8.88547720	     -7.10551370	     -5.30052714	    -70.10972483	    -10.91220316	      0.00000000	      0.00000000	      0.00000000	      0.00000000	      0.00000000
      1.84000000	     91.54893204	     31.85110091	    -91.94027698	      1.02045495	      0.28753936	      1.07656687	     19.13075530	     -6.92698421	     -5.15178124	    -13.95732328	    -13.84110912	      0.00000000	      0.00000000	      8.86212761	     -7.11601690	     -5.32178550	    -70.11192225	    -10.90393040	      0.00000000	      0.00000000	      0.00000000	      0.00000000	      0.00000000
      1.85000000	     91.52876752	     31.85291918	    -91.95454294	      1.02052744	      0.28749470	      1.07668621	     19.10402796	     -6.89585255	     -5.07912200	    -13.93370565	    -13.75149312	      0.00000000	      0.00000000	      8.85258815	     -7.14577120	     -5.34568624	    -70.11610796	    -10.89696793	      0.00000000	      0.00000000	      0.00000000	      0.00000000	      0.00000000
      1.86000000	     91.49019231	     31.87604836	    -91.96079787	      1.02062950	      0.28741419	      1.07670838	     19.06112116	     -6.84298835	     -4.93872007	    -13.85423517	    -13.53525377	      0.00000000	      0.00000000	      8.86097677	     -7.19555979	     -5.36413163	    -70.12222747	    -10.89351026	      0.00000000	      0.00000000	      0.00000000	      0.00000000	      0.00000000
      1.87000000	     91.43884320	     31.90785319	    -91.94931320	      1.02068455	      0.28728140	      1.07657084	     19.02590901	     -6.76997801	     -4.74233920	    -13.70395312	    -13.20351441	      0.00000000	      0.00000000	      8.88339417	     -7.25891043	     -5.37092102	    -70.13025863	    -10.89517930	      0.00000000	      0.00000000	      0.00000000	      0.00000000	      0.00000000
      1.88000000	     91.38890293	     31.92572921	    -91.91504232	      1.02063943	      0.28712402	      1.07646346	     19.02642140	     -6.68230614	     -4.52668034	    -13.49562958	    -12.81329518	      0.00000000	      0.00000000	      8.91258003	     -7.32269811	     -5.36512062	    -70.13963149	    -10.90206155	      0.00000000	      0.00000000	      0.00000000	      0.00000000	      0.00000000
      1.89000000	     91.35569959	     31.92384032	    -91.86789300	      1.02050517	      0.28703420	      1.07656699	     19.06165001	     -6.59446673	     -4.34567874	    -13.28533172	    -12.46291922	      0.00000000	      0.00000000	      8.94449617	     -7.37192803	     -5.35111726	    -70.14845715	    -10.91216704	      0.00000000	      0.00000000	      0.00000000	      0.00000000	      0.00000000
      1.90000000	     91.34388028	     31.92829732	    -91.83326259	      1.02036133	      0.28704727	      1.07665425	     19.09114488	     -6.53377498	     -4.25050439	    -13.15776465	    -12.26348554	      0.00000000	      0.00000000	      8.97799871	     -7.39570663	     -5.33542408	    -70.15424155	    -10.92207222	      0.00000000	      0.00000000	      0.00000000	      0.00000000	      0.00000000
      1.91000000	     91.34700687	     31.95868742	    -91.83098556	      1.02032444	      0.28707172	      1.07648636	     19.08657584	     -6.52809276	     -4.26487287	    -13.16730221	    -12.29036663	      0.00000000	      0.00000000	      9.00788456	     -7.39020638	     -5.32305662	    -70.15595783	    -10.92859934	      0.00000000	      0.00000000	      0.00000000	      0.00000000	      0.00000000
      1.92000000	     91.36223441	     31.99010033	    -91.85441520	      1.02043475	      0.28707674	      1.07632917	     19.07705448	     -6.57967889	     -4.37310167	    -13.29135869	    -12.54148567	      0.00000000	      0.00000000	      9.02298707	     -7.35811210	     -5.31597561	    -70.15477939	    -10.93031556	      0.00000000	      0.00000000	      0.00000000	      0.00000000	      0.00000000
      1.93000000	     91.39368122	     31.98889725	    -91.88100122	      1.02057915	      0.28715873	      1.07642817	     19.10681289	     -6.65975262	     -4.53100399	    -13.45734881	    -12.93393915	      0.00000000	      0.00000000	      9.01550934	     -7.30737324	     -5.31356707	    -70.15217418	    -10.92783961	      0.00000000	      0.00000000	      0.00000000	      0.00000000	      0.00000000
      1.94000000	     91.43771689	     31.95723981	    -91.89685661	      1.02061616	      0.28732153	      1.07659138	     19.17825709	     -6.73423288	     -4.68861008	    -13.60015792	    -13.34063233	      0.00000000	      0.00000000	      8.99088810	     -7.25025014	     -5.31392783	    -70.14793415	    -10.92316125	      0.00000000	      0.00000000	      0.00000000	      0.00000000	      0.00000000
      1.95000000	     91.47921155	     31.92246031	    -91.90308283	      1.02053479	      0.28744691	      1.07659293	     19.25814457	     -6.78474415	     -4.80911138	    -13.68830038	    -13.64263188	      0.00000000	      0.00000000	      8.96523365	     -7.20077376	     -5.31519703	    -70.14075036	    -10.91876686	      0.00000000	      0.00000000	      0.00000000	      0.00000000	      0.00000000
      1.96000000	     91.50437833	     31.90617844	    -91.90608294	      1.02043312	      0.28748200	      1.07647563	     19.31457172	     -6.80819062	     -4.87765812	    -13.71970074	    -13.77206205	      0.00000000	      0.00000000	      8.95297471	     -7.16992969	     -5.31646956	    -70.13027330	    -10.91691142	      0.00000000	      0.00000000	      0.00000000	      0.00000000	      0.00000000
      1.97000000	     91.50939838	     31.91139558	    -91.90922569	      1.02039083	      0.28746771	      1.07640286	     19.33758187	     -6.81057036	     -4.90010745	    -13.70920323	    -13.73045636	      0.00000000	      0.00000000	      8.95758592	     -7.16107260	     -5.31788915	    -70.11796371	    -10.91891609	      0.00000000	      0.00000000	      0.00000000	      0.00000000	      0.00000000
      1.98000000	     91.49914879	     31.92867131	    -91.91240447	      1.02040567	      0.28744163	      1.07643764	     19.33496962	     -6.80275777	     -4.89543694	    -13.67893905	    -13.57954855	      0.00000000	      0.00000000	      8.97226415	     -7.16884885	     -5.31998680	    -70.10601766	    -10.92453603	      0.00000000	      0.00000000	      0.00000000	      0.00000000	      0.00000000
